<svg width="24" height="24" viewBox="0 0 24 24" fill="none" xmlns="http://www.w3.org/2000/svg">
<path d="M12 2.25C10.0716 2.25 8.18657 2.82183 6.58319 3.89317C4.97982 4.96451 3.73013 6.48726 2.99218 8.26884C2.25422 10.0504 2.06114 12.0108 2.43735 13.9021C2.81355 15.7934 3.74215 17.5307 5.10571 18.8943C6.46928 20.2579 8.20656 21.1865 10.0979 21.5627C11.9892 21.9389 13.9496 21.7458 15.7312 21.0078C17.5127 20.2699 19.0355 19.0202 20.1068 17.4168C21.1782 15.8134 21.75 13.9284 21.75 12C21.745 9.41566 20.7162 6.93859 18.8888 5.11118C17.0614 3.28378 14.5843 2.25496 12 2.25ZM12 19.5C10.767 19.499 9.55335 19.1941 8.46634 18.6122C7.37933 18.0303 6.45254 17.1894 5.76801 16.164C5.08347 15.1385 4.66232 13.9601 4.54181 12.733C4.42131 11.506 4.60518 10.2681 5.07714 9.12908C5.5491 7.99003 6.2946 6.98491 7.24765 6.20268C8.2007 5.42045 9.33189 4.88524 10.5411 4.64444C11.7503 4.40363 13.0002 4.46465 14.1803 4.8221C15.3603 5.17955 16.4339 5.8224 17.3063 6.69375C17.4465 6.83435 17.5253 7.02484 17.5253 7.22344C17.5253 7.42204 17.4465 7.61252 17.3063 7.75312C17.2373 7.82371 17.1549 7.8798 17.0639 7.91809C16.973 7.95638 16.8753 7.9761 16.7766 7.9761C16.6779 7.9761 16.5802 7.95638 16.4892 7.91809C16.3983 7.8798 16.3159 7.82371 16.2469 7.75312C15.2879 6.79125 14.0313 6.18262 12.6821 6.02648C11.3328 5.87034 9.97045 6.17589 8.81712 6.89332C7.66379 7.61075 6.78752 8.69773 6.33118 9.97704C5.87484 11.2563 5.86536 12.6525 6.30427 13.9379C6.74319 15.2233 7.60461 16.3221 8.74808 17.0551C9.89156 17.7882 11.2496 18.1122 12.6009 17.9744C13.9522 17.8366 15.2169 17.2451 16.1888 16.2963C17.1608 15.3476 17.7827 14.0975 17.9531 12.75H12C11.8011 12.75 11.6103 12.671 11.4697 12.5303C11.329 12.3897 11.25 12.1989 11.25 12C11.25 11.8011 11.329 11.6103 11.4697 11.4697C11.6103 11.329 11.8011 11.25 12 11.25H18.75C18.9489 11.25 19.1397 11.329 19.2803 11.4697C19.421 11.6103 19.5 11.8011 19.5 12C19.4975 13.9884 18.7066 15.8946 17.3006 17.3006C15.8946 18.7065 13.9884 19.4975 12 19.5Z" fill="#FFF8F8"/>
</svg>
